<svg width="520" height="360" viewBox="0 0 520 360" fill="none" xmlns="http://www.w3.org/2000/svg">
  <rect x="126" y="50" width="250" height="178" rx="8" fill="#263241"/>
  <rect x="138" y="65" width="226" height="34" fill="#F39B2F"/>
  <g fill="#A85F2B">
    <rect x="149" y="22" width="42" height="34" rx="2"/>
    <rect x="196" y="22" width="42" height="34" rx="2"/>
    <rect x="243" y="22" width="42" height="34" rx="2"/>
    <rect x="290" y="22" width="42" height="34" rx="2"/>
    <rect x="337" y="22" width="42" height="34" rx="2"/>
    <rect x="149" y="113" width="42" height="34" rx="2"/>
    <rect x="196" y="113" width="42" height="34" rx="2"/>
    <rect x="290" y="113" width="42" height="34" rx="2"/>
    <rect x="337" y="113" width="42" height="34" rx="2"/>
  </g>
  <g stroke="#DFA064" stroke-width="1.6">
    <path d="M149 33h42M196 33h42M243 33h42M290 33h42M337 33h42"/>
    <path d="M149 124h42M196 124h42M290 124h42M337 124h42"/>
  </g>
  <g stroke="#344456" stroke-width="7" stroke-linecap="round">
    <path d="M126 50v196M376 50v196M118 88h266M118 149h266M118 210h266"/>
  </g>
  <rect x="207" y="129" width="116" height="80" rx="8" fill="#152334"/>
  <rect x="217" y="142" width="96" height="45" rx="4" fill="#203D5D"/>
  <text x="228" y="158" fill="#DCEAF5" font-family="Arial, Helvetica, sans-serif" font-size="8" font-weight="700">STOCK OVERVIEW</text>
  <rect x="228" y="168" width="17" height="6" rx="2" fill="#35D18A"/>
  <rect x="255" y="168" width="17" height="6" rx="2" fill="#D6D337"/>
  <rect x="282" y="168" width="17" height="6" rx="2" fill="#FF615E"/>
  <rect x="52" y="205" width="106" height="76" rx="3" fill="#B96D34"/>
  <rect x="71" y="177" width="64" height="45" rx="3" fill="#C5793A"/>
  <path d="M58 230h94M78 196h52" stroke="#E1A56C" stroke-width="2"/>
  <rect x="104" y="268" width="48" height="12" rx="6" fill="#374151"/>
  <rect x="384" y="213" width="76" height="38" rx="3" fill="#C5793A"/>
  <rect x="408" y="179" width="62" height="38" rx="3" fill="#B96D34"/>
  <path d="M388 232h68M412 198h54" stroke="#E1A56C" stroke-width="2"/>
  <path d="M383 252h94l-12 41h-69l-13-41Z" fill="#D1D5DB"/>
  <circle cx="407" cy="301" r="8" fill="#344456"/>
  <circle cx="456" cy="301" r="8" fill="#344456"/>
  <rect x="338" y="206" width="42" height="70" rx="3" fill="#F6F2E9" stroke="#9CA3AF" stroke-width="2"/>
  <path d="M347 222h24M347 237h24M347 252h16" stroke="#6B7280" stroke-width="2"/>
  <rect x="245" y="247" width="48" height="76" rx="12" fill="#263241"/>
  <rect x="253" y="258" width="32" height="42" rx="4" fill="#46576B"/>
  <circle cx="269" cy="311" r="5" fill="#F39B2F"/>
  <path d="M76 232h-39v56h52" stroke="#374151" stroke-width="6" stroke-linecap="round"/>
  <rect x="25" y="281" width="88" height="12" rx="6" fill="#D1D5DB"/>
  <rect x="30" y="164" width="56" height="30" rx="4" fill="#E8EEF3" stroke="#64748B" stroke-width="2"/>
  <rect x="42" y="194" width="32" height="10" fill="#64748B"/>
  <rect x="32" y="210" width="54" height="6" rx="3" fill="#94A3B8"/>
</svg>
