<svg width="74" height="78" viewBox="0 0 74 78" fill="none" xmlns="http://www.w3.org/2000/svg">
<rect width="74" height="78" rx="5" fill="#0F766E"/>
<path d="M34.4444 63.863C35.2214 64.3116 36.1028 64.5477 37 64.5477C37.8972 64.5477 38.7786 64.3116 39.5556 63.863L57.4444 53.6408C58.2207 53.1926 58.8654 52.5482 59.3139 51.7722C59.7625 50.9962 59.9991 50.1159 60 49.2197V28.7752C59.9991 27.8789 59.7625 26.9986 59.3139 26.2226C58.8654 25.4466 58.2207 24.8022 57.4444 24.3541L39.5556 14.1319C38.7786 13.6833 37.8972 13.4471 37 13.4471C36.1028 13.4471 35.2214 13.6833 34.4444 14.1319L16.5556 24.3541C15.7793 24.8022 15.1346 25.4466 14.6861 26.2226C14.2375 26.9986 14.0009 27.8789 14 28.7752V49.2197C14.0009 50.1159 14.2375 50.9962 14.6861 51.7722C15.1346 52.5482 15.7793 53.1926 16.5556 53.6408L34.4444 63.863Z" stroke="#F3F4F6" stroke-width="2" stroke-linecap="round" stroke-linejoin="round"/>
<path d="M37 64.5529V38.9973" stroke="#F3F4F6" stroke-width="2" stroke-linecap="round" stroke-linejoin="round"/>
<path d="M14.7411 26.2196L37 38.9974L59.2589 26.2196" stroke="#F3F4F6" stroke-width="2" stroke-linecap="round" stroke-linejoin="round"/>
<path d="M25.5 19.2429L48.5 32.404" stroke="#F3F4F6" stroke-width="2" stroke-linecap="round" stroke-linejoin="round"/>
</svg>
