<svg width="249" height="49" viewBox="0 0 249 49" fill="none" xmlns="http://www.w3.org/2000/svg">
<g clip-path="url(#clip0_76_131)">
<path d="M42.8919 0H3.10811C1.39155 0 0 1.40629 0 3.14103V45.859C0 47.5937 1.39155 49 3.10811 49H42.8919C44.6085 49 46 47.5937 46 45.859V3.14103C46 1.40629 44.6085 0 42.8919 0Z" fill="white"/>
<path d="M21.4114 40.119C21.8944 40.4009 22.4423 40.5492 23 40.5492C23.5577 40.5492 24.1056 40.4009 24.5886 40.119L35.7087 33.6974C36.1912 33.4158 36.592 33.011 36.8708 32.5235C37.1497 32.0361 37.2967 31.483 37.2973 30.92V18.0767C37.2967 17.5136 37.1497 16.9606 36.8708 16.4731C36.592 15.9857 36.1912 15.5808 35.7087 15.2993L24.5886 8.8777C24.1056 8.59589 23.5577 8.44751 23 8.44751C22.4423 8.44751 21.8944 8.59589 21.4114 8.8777L10.2913 15.2993C9.80875 15.5808 9.40799 15.9857 9.12919 16.4731C8.85033 16.9606 8.70326 17.5136 8.7027 18.0767V30.92C8.70326 31.483 8.85033 32.0361 9.12919 32.5235C9.40799 33.011 9.80875 33.4158 10.2913 33.6974L21.4114 40.119Z" stroke="#0F766E" stroke-width="2" stroke-linecap="round" stroke-linejoin="round"/>
<path d="M23 40.5525V24.4983" stroke="#0F766E" stroke-width="2" stroke-linecap="round" stroke-linejoin="round"/>
<path d="M9.16339 16.4713L23 24.4984L36.8366 16.4713" stroke="#0F766E" stroke-width="2" stroke-linecap="round" stroke-linejoin="round"/>
<path d="M15.8513 12.0885L30.1486 20.3564" stroke="#0F766E" stroke-width="2" stroke-linecap="round" stroke-linejoin="round"/>
</g>
<path d="M66.14 36.86C64.72 36.86 63.4 36.6 62.18 36.08C60.98 35.56 59.94 34.84 59.06 33.92C58.2 32.98 57.57 31.89 57.17 30.65L60.56 29.18C61.1 30.46 61.88 31.47 62.9 32.21C63.92 32.93 65.07 33.29 66.35 33.29C67.07 33.29 67.69 33.18 68.21 32.96C68.75 32.72 69.16 32.4 69.44 32C69.74 31.6 69.89 31.12 69.89 30.56C69.89 29.9 69.69 29.36 69.29 28.94C68.91 28.5 68.33 28.16 67.55 27.92L63.26 26.54C61.52 26 60.21 25.19 59.33 24.11C58.45 23.03 58.01 21.76 58.01 20.3C58.01 19.02 58.32 17.89 58.94 16.91C59.58 15.93 60.46 15.17 61.58 14.63C62.72 14.07 64.02 13.79 65.48 13.79C66.82 13.79 68.05 14.03 69.17 14.51C70.29 14.97 71.25 15.62 72.05 16.46C72.87 17.28 73.48 18.25 73.88 19.37L70.52 20.87C70.08 19.75 69.42 18.89 68.54 18.29C67.66 17.67 66.64 17.36 65.48 17.36C64.8 17.36 64.2 17.48 63.68 17.72C63.16 17.94 62.75 18.26 62.45 18.68C62.17 19.08 62.03 19.56 62.03 20.12C62.03 20.74 62.23 21.29 62.63 21.77C63.03 22.23 63.64 22.59 64.46 22.85L68.57 24.14C70.35 24.72 71.68 25.52 72.56 26.54C73.46 27.56 73.91 28.82 73.91 30.32C73.91 31.6 73.58 32.73 72.92 33.71C72.26 34.69 71.35 35.46 70.19 36.02C69.03 36.58 67.68 36.86 66.14 36.86ZM84.6938 36.68C82.8538 36.68 81.4238 36.18 80.4038 35.18C79.4038 34.16 78.9038 32.73 78.9038 30.89V23.69H76.0838V20.18H76.3838C77.1838 20.18 77.8038 19.97 78.2438 19.55C78.6838 19.13 78.9038 18.52 78.9038 17.72V16.46H82.8338V20.18H86.5838V23.69H82.8338V30.68C82.8338 31.22 82.9238 31.68 83.1038 32.06C83.3038 32.44 83.6038 32.73 84.0038 32.93C84.4238 33.13 84.9538 33.23 85.5938 33.23C85.7338 33.23 85.8938 33.22 86.0738 33.2C86.2738 33.18 86.4638 33.16 86.6438 33.14V36.5C86.3638 36.54 86.0438 36.58 85.6838 36.62C85.3238 36.66 84.9938 36.68 84.6938 36.68ZM97.4799 36.86C95.8799 36.86 94.4199 36.49 93.0999 35.75C91.7999 35.01 90.7599 34 89.9799 32.72C89.2199 31.44 88.8399 29.98 88.8399 28.34C88.8399 26.7 89.2199 25.24 89.9799 23.96C90.7599 22.68 91.7999 21.67 93.0999 20.93C94.3999 20.19 95.8599 19.82 97.4799 19.82C99.0799 19.82 100.53 20.19 101.83 20.93C103.13 21.67 104.16 22.68 104.92 23.96C105.7 25.22 106.09 26.68 106.09 28.34C106.09 29.98 105.7 31.44 104.92 32.72C104.14 34 103.1 35.01 101.8 35.75C100.5 36.49 99.0599 36.86 97.4799 36.86ZM97.4799 33.26C98.3599 33.26 99.1299 33.05 99.7899 32.63C100.47 32.21 101 31.63 101.38 30.89C101.78 30.13 101.98 29.28 101.98 28.34C101.98 27.38 101.78 26.54 101.38 25.82C101 25.08 100.47 24.5 99.7899 24.08C99.1299 23.64 98.3599 23.42 97.4799 23.42C96.5799 23.42 95.7899 23.64 95.1099 24.08C94.4299 24.5 93.8899 25.08 93.4899 25.82C93.1099 26.54 92.9199 27.38 92.9199 28.34C92.9199 29.28 93.1099 30.13 93.4899 30.89C93.8899 31.63 94.4299 32.21 95.1099 32.63C95.7899 33.05 96.5799 33.26 97.4799 33.26ZM116.93 36.86C115.31 36.86 113.85 36.49 112.55 35.75C111.27 34.99 110.26 33.97 109.52 32.69C108.78 31.39 108.41 29.93 108.41 28.31C108.41 26.69 108.78 25.24 109.52 23.96C110.26 22.68 111.27 21.67 112.55 20.93C113.85 20.19 115.31 19.82 116.93 19.82C118.09 19.82 119.17 20.03 120.17 20.45C121.17 20.85 122.03 21.41 122.75 22.13C123.49 22.83 124.02 23.67 124.34 24.65L120.89 26.15C120.59 25.33 120.08 24.67 119.36 24.17C118.66 23.67 117.85 23.42 116.93 23.42C116.07 23.42 115.3 23.63 114.62 24.05C113.96 24.47 113.44 25.05 113.06 25.79C112.68 26.53 112.49 27.38 112.49 28.34C112.49 29.3 112.68 30.15 113.06 30.89C113.44 31.63 113.96 32.21 114.62 32.63C115.3 33.05 116.07 33.26 116.93 33.26C117.87 33.26 118.69 33.01 119.39 32.51C120.09 32.01 120.59 31.34 120.89 30.5L124.34 32.06C124.02 32.98 123.5 33.81 122.78 34.55C122.06 35.27 121.2 35.84 120.2 36.26C119.2 36.66 118.11 36.86 116.93 36.86ZM127.322 36.5V13.79H131.252V28.67L129.752 28.22L137.432 20.18H142.322L136.292 26.75L142.442 36.5H137.942L132.602 28.04L134.942 27.56L130.022 32.84L131.252 30.44V36.5H127.322ZM155.467 36.86C153.867 36.86 152.387 36.57 151.027 35.99C149.687 35.41 148.507 34.6 147.487 33.56C146.487 32.52 145.707 31.3 145.147 29.9C144.587 28.5 144.307 26.97 144.307 25.31C144.307 23.65 144.577 22.12 145.117 20.72C145.677 19.3 146.457 18.08 147.457 17.06C148.477 16.02 149.667 15.22 151.027 14.66C152.387 14.08 153.867 13.79 155.467 13.79C157.067 13.79 158.497 14.06 159.757 14.6C161.037 15.14 162.117 15.86 162.997 16.76C163.877 17.64 164.507 18.61 164.887 19.67L161.227 21.38C160.807 20.26 160.097 19.34 159.097 18.62C158.097 17.88 156.887 17.51 155.467 17.51C154.067 17.51 152.827 17.84 151.747 18.5C150.687 19.16 149.857 20.07 149.257 21.23C148.677 22.39 148.387 23.75 148.387 25.31C148.387 26.87 148.677 28.24 149.257 29.42C149.857 30.58 150.687 31.49 151.747 32.15C152.827 32.81 154.067 33.14 155.467 33.14C156.887 33.14 158.097 32.78 159.097 32.06C160.097 31.32 160.807 30.39 161.227 29.27L164.887 30.98C164.507 32.04 163.877 33.02 162.997 33.92C162.117 34.8 161.037 35.51 159.757 36.05C158.497 36.59 157.067 36.86 155.467 36.86ZM175.316 36.86C173.636 36.86 172.166 36.48 170.906 35.72C169.646 34.96 168.666 33.93 167.966 32.63C167.266 31.33 166.916 29.89 166.916 28.31C166.916 26.67 167.266 25.22 167.966 23.96C168.686 22.68 169.656 21.67 170.876 20.93C172.116 20.19 173.496 19.82 175.016 19.82C176.296 19.82 177.416 20.03 178.376 20.45C179.356 20.87 180.186 21.45 180.866 22.19C181.546 22.93 182.066 23.78 182.426 24.74C182.786 25.68 182.966 26.7 182.966 27.8C182.966 28.08 182.946 28.37 182.906 28.67C182.886 28.97 182.836 29.23 182.756 29.45H170.156V26.45H180.536L178.676 27.86C178.856 26.94 178.806 26.12 178.526 25.4C178.266 24.68 177.826 24.11 177.206 23.69C176.606 23.27 175.876 23.06 175.016 23.06C174.196 23.06 173.466 23.27 172.826 23.69C172.186 24.09 171.696 24.69 171.356 25.49C171.036 26.27 170.916 27.22 170.996 28.34C170.916 29.34 171.046 30.23 171.386 31.01C171.746 31.77 172.266 32.36 172.946 32.78C173.646 33.2 174.446 33.41 175.346 33.41C176.246 33.41 177.006 33.22 177.626 32.84C178.266 32.46 178.766 31.95 179.126 31.31L182.306 32.87C181.986 33.65 181.486 34.34 180.806 34.94C180.126 35.54 179.316 36.01 178.376 36.35C177.456 36.69 176.436 36.86 175.316 36.86ZM185.945 36.5V20.18H189.635V23.81L189.335 23.27C189.715 22.05 190.305 21.2 191.105 20.72C191.925 20.24 192.905 20 194.045 20H195.005V23.48H193.595C192.475 23.48 191.575 23.83 190.895 24.53C190.215 25.21 189.875 26.17 189.875 27.41V36.5H185.945ZM204.756 36.86C203.176 36.86 201.766 36.49 200.526 35.75C199.286 34.99 198.306 33.96 197.586 32.66C196.866 31.36 196.506 29.92 196.506 28.34C196.506 26.74 196.866 25.3 197.586 24.02C198.306 22.74 199.286 21.72 200.526 20.96C201.786 20.2 203.186 19.82 204.726 19.82C205.966 19.82 207.066 20.07 208.026 20.57C209.006 21.05 209.776 21.73 210.336 22.61L209.736 23.42V13.79H213.666V36.5H209.946V33.35L210.366 34.13C209.806 35.01 209.026 35.69 208.026 36.17C207.026 36.63 205.936 36.86 204.756 36.86ZM205.176 33.26C206.076 33.26 206.866 33.05 207.546 32.63C208.226 32.21 208.756 31.63 209.136 30.89C209.536 30.15 209.736 29.3 209.736 28.34C209.736 27.4 209.536 26.56 209.136 25.82C208.756 25.06 208.226 24.47 207.546 24.05C206.866 23.63 206.076 23.42 205.176 23.42C204.296 23.42 203.506 23.64 202.806 24.08C202.106 24.5 201.556 25.08 201.156 25.82C200.776 26.54 200.586 27.38 200.586 28.34C200.586 29.3 200.776 30.15 201.156 30.89C201.556 31.63 202.106 32.21 202.806 32.63C203.506 33.05 204.296 33.26 205.176 33.26ZM222.272 36.86C221.132 36.86 220.142 36.67 219.302 36.29C218.462 35.91 217.812 35.37 217.352 34.67C216.892 33.95 216.662 33.12 216.662 32.18C216.662 31.28 216.862 30.48 217.262 29.78C217.662 29.06 218.282 28.46 219.122 27.98C219.962 27.5 221.022 27.16 222.302 26.96L227.642 26.09V29.09L223.052 29.87C222.272 30.01 221.692 30.26 221.312 30.62C220.932 30.98 220.742 31.45 220.742 32.03C220.742 32.59 220.952 33.04 221.372 33.38C221.812 33.7 222.352 33.86 222.992 33.86C223.812 33.86 224.532 33.69 225.152 33.35C225.792 32.99 226.282 32.5 226.622 31.88C226.982 31.26 227.162 30.58 227.162 29.84V25.64C227.162 24.94 226.882 24.36 226.322 23.9C225.782 23.42 225.062 23.18 224.162 23.18C223.322 23.18 222.572 23.41 221.912 23.87C221.272 24.31 220.802 24.9 220.502 25.64L217.292 24.08C217.612 23.22 218.112 22.48 218.792 21.86C219.492 21.22 220.312 20.72 221.252 20.36C222.192 20 223.212 19.82 224.312 19.82C225.652 19.82 226.832 20.07 227.852 20.57C228.872 21.05 229.662 21.73 230.222 22.61C230.802 23.47 231.092 24.48 231.092 25.64V36.5H227.372V33.71L228.212 33.65C227.792 34.35 227.292 34.94 226.712 35.42C226.132 35.88 225.472 36.24 224.732 36.5C223.992 36.74 223.172 36.86 222.272 36.86ZM240.935 36.86C239.195 36.86 237.675 36.45 236.375 35.63C235.095 34.79 234.215 33.66 233.735 32.24L236.675 30.83C237.095 31.75 237.675 32.47 238.415 32.99C239.175 33.51 240.015 33.77 240.935 33.77C241.655 33.77 242.225 33.61 242.645 33.29C243.065 32.97 243.275 32.55 243.275 32.03C243.275 31.71 243.185 31.45 243.005 31.25C242.845 31.03 242.615 30.85 242.315 30.71C242.035 30.55 241.725 30.42 241.385 30.32L238.715 29.57C237.335 29.17 236.285 28.56 235.565 27.74C234.865 26.92 234.515 25.95 234.515 24.83C234.515 23.83 234.765 22.96 235.265 22.22C235.785 21.46 236.495 20.87 237.395 20.45C238.315 20.03 239.365 19.82 240.545 19.82C242.085 19.82 243.445 20.19 244.625 20.93C245.805 21.67 246.645 22.71 247.145 24.05L244.145 25.46C243.865 24.72 243.395 24.13 242.735 23.69C242.075 23.25 241.335 23.03 240.515 23.03C239.855 23.03 239.335 23.18 238.955 23.48C238.575 23.78 238.385 24.17 238.385 24.65C238.385 24.95 238.465 25.21 238.625 25.43C238.785 25.65 239.005 25.83 239.285 25.97C239.585 26.11 239.925 26.24 240.305 26.36L242.915 27.14C244.255 27.54 245.285 28.14 246.005 28.94C246.745 29.74 247.115 30.72 247.115 31.88C247.115 32.86 246.855 33.73 246.335 34.49C245.815 35.23 245.095 35.81 244.175 36.23C243.255 36.65 242.175 36.86 240.935 36.86Z" fill="white"/>
<defs>
<clipPath id="clip0_76_131">
<rect width="46" height="49" fill="white"/>
</clipPath>
</defs>
</svg>
